<?xml version="1.0" encoding="UTF-8" standalone="no"?>
<!DOCTYPE svg PUBLIC "-//W3C//DTD SVG 1.1//EN"
 "http://www.w3.org/Graphics/SVG/1.1/DTD/svg11.dtd">
<!-- Generated by graphviz version 2.38.0 (20140413.2041)
 -->
<!-- Title: G Pages: 1 -->
<svg width="1900pt" height="836pt"
 viewBox="0.00 0.00 1899.82 836.00" xmlns="http://www.w3.org/2000/svg" xmlns:xlink="http://www.w3.org/1999/xlink">
<g id="graph0" class="graph" transform="scale(1 1) rotate(0) translate(4 832)">
<title>G</title>
<polygon fill="white" stroke="none" points="-4,4 -4,-832 1895.82,-832 1895.82,4 -4,4"/>
<!-- n17 -->
<g id="node1" class="node"><title>n17</title>
<ellipse fill="none" stroke="green" cx="213.519" cy="-810" rx="168.965" ry="18"/>
<text text-anchor="middle" x="213.519" y="-805.8" font-family="Times,serif" font-size="14.00">1_get_raw_data/cfg/sample_config.yaml</text>
</g>
<!-- n15 -->
<g id="node4" class="node"><title>n15</title>
<ellipse fill="none" stroke="red" cx="213.519" cy="-738" rx="213.539" ry="18"/>
<text text-anchor="middle" x="213.519" y="-733.8" font-family="Times,serif" font-size="14.00">1_get_raw_data/out/USGS_WQ_DATA_02&#45;16.xlsx</text>
</g>
<!-- n17&#45;&gt;n15 -->
<g id="edge3" class="edge"><title>n17&#45;&gt;n15</title>
<path fill="none" stroke="black" d="M213.519,-791.697C213.519,-783.983 213.519,-774.712 213.519,-766.112"/>
<polygon fill="black" stroke="black" points="217.02,-766.104 213.519,-756.104 210.02,-766.104 217.02,-766.104"/>
</g>
<!-- n22 -->
<g id="node2" class="node"><title>n22</title>
<ellipse fill="none" stroke="green" cx="1028.52" cy="-810" rx="170.689" ry="18"/>
<text text-anchor="middle" x="1028.52" y="-805.8" font-family="Times,serif" font-size="14.00">1_get_raw_data/cfg/siteinfo_config.yaml</text>
</g>
<!-- n21 -->
<g id="node3" class="node"><title>n21</title>
<ellipse fill="none" stroke="red" cx="1028.52" cy="-738" rx="220.489" ry="18"/>
<text text-anchor="middle" x="1028.52" y="-733.8" font-family="Times,serif" font-size="14.00">1_get_raw_data/out/SampleGanttCharts_wRanks.xlsx</text>
</g>
<!-- n22&#45;&gt;n21 -->
<g id="edge1" class="edge"><title>n22&#45;&gt;n21</title>
<path fill="none" stroke="black" d="M1028.52,-791.697C1028.52,-783.983 1028.52,-774.712 1028.52,-766.112"/>
<polygon fill="black" stroke="black" points="1032.02,-766.104 1028.52,-756.104 1025.02,-766.104 1032.02,-766.104"/>
</g>
<!-- n18 -->
<g id="node10" class="node"><title>n18</title>
<ellipse fill="none" stroke="red" cx="1184.52" cy="-594" rx="129.128" ry="18"/>
<text text-anchor="middle" x="1184.52" y="-589.8" font-family="Times,serif" font-size="14.00">3_filter/out/summary_sites.rds</text>
</g>
<!-- n21&#45;&gt;n18 -->
<g id="edge9" class="edge"><title>n21&#45;&gt;n18</title>
<path fill="none" stroke="black" d="M1027.61,-719.841C1027.5,-700.216 1030.3,-668.199 1047.52,-648 1061.52,-631.582 1081.23,-620.227 1101.34,-612.382"/>
<polygon fill="black" stroke="black" points="1102.7,-615.612 1110.91,-608.912 1100.31,-609.031 1102.7,-615.612"/>
</g>
<!-- n13 -->
<g id="node6" class="node"><title>n13</title>
<ellipse fill="none" stroke="red" cx="617.519" cy="-666" rx="153.372" ry="18"/>
<text text-anchor="middle" x="617.519" y="-661.8" font-family="Times,serif" font-size="14.00">2_clean_sample/out/sample_data.rds</text>
</g>
<!-- n15&#45;&gt;n13 -->
<g id="edge5" class="edge"><title>n15&#45;&gt;n13</title>
<path fill="none" stroke="black" d="M302.429,-721.595C368.502,-710.147 458.392,-694.572 525.253,-682.987"/>
<polygon fill="black" stroke="black" points="526.106,-686.391 535.361,-681.235 524.911,-679.494 526.106,-686.391"/>
</g>
<!-- n16 -->
<g id="node5" class="node"><title>n16</title>
<ellipse fill="none" stroke="green" cx="620.519" cy="-810" rx="143.558" ry="18"/>
<text text-anchor="middle" x="620.519" y="-805.8" font-family="Times,serif" font-size="14.00">1_get_raw_data/src/get_siteinfo.R</text>
</g>
<!-- n16&#45;&gt;n21 -->
<g id="edge2" class="edge"><title>n16&#45;&gt;n21</title>
<path fill="none" stroke="black" d="M701.615,-795.087C766.736,-783.914 858.496,-768.171 928.23,-756.207"/>
<polygon fill="black" stroke="black" points="929.088,-759.61 938.353,-754.47 927.905,-752.711 929.088,-759.61"/>
</g>
<!-- n16&#45;&gt;n15 -->
<g id="edge4" class="edge"><title>n16&#45;&gt;n15</title>
<path fill="none" stroke="black" d="M539.623,-795.087C474.551,-783.895 382.815,-768.117 313.209,-756.146"/>
<polygon fill="black" stroke="black" points="313.554,-752.654 303.105,-754.408 312.367,-759.552 313.554,-752.654"/>
</g>
<!-- n13&#45;&gt;n18 -->
<g id="edge10" class="edge"><title>n13&#45;&gt;n18</title>
<path fill="none" stroke="black" d="M718.888,-652.485C821.079,-639.869 978.022,-620.494 1080.98,-607.783"/>
<polygon fill="black" stroke="black" points="1081.59,-611.234 1091.08,-606.535 1080.73,-604.287 1081.59,-611.234"/>
</g>
<!-- n11 -->
<g id="node17" class="node"><title>n11</title>
<ellipse fill="none" stroke="red" cx="1185.52" cy="-378" rx="112.263" ry="18"/>
<text text-anchor="middle" x="1185.52" y="-373.8" font-family="Times,serif" font-size="14.00">5_merge/doc/progress.csv</text>
</g>
<!-- n13&#45;&gt;n11 -->
<g id="edge16" class="edge"><title>n13&#45;&gt;n11</title>
<path fill="none" stroke="black" d="M613.926,-647.993C608.17,-615.677 600.861,-544.978 636.519,-504 693.623,-438.378 936.682,-403.583 1079.53,-388.469"/>
<polygon fill="black" stroke="black" points="1080.06,-391.933 1089.64,-387.415 1079.33,-384.971 1080.06,-391.933"/>
</g>
<!-- n14 -->
<g id="node7" class="node"><title>n14</title>
<ellipse fill="none" stroke="green" cx="617.519" cy="-738" rx="172.389" ry="18"/>
<text text-anchor="middle" x="617.519" y="-733.8" font-family="Times,serif" font-size="14.00">2_clean_sample/src/clean_sample_data.R</text>
</g>
<!-- n14&#45;&gt;n13 -->
<g id="edge6" class="edge"><title>n14&#45;&gt;n13</title>
<path fill="none" stroke="black" d="M617.519,-719.697C617.519,-711.983 617.519,-702.712 617.519,-694.112"/>
<polygon fill="black" stroke="black" points="621.02,-694.104 617.519,-684.104 614.02,-694.104 621.02,-694.104"/>
</g>
<!-- n23 -->
<g id="node8" class="node"><title>n23</title>
<ellipse fill="none" stroke="green" cx="1183.52" cy="-666" rx="127.3" ry="18"/>
<text text-anchor="middle" x="1183.52" y="-661.8" font-family="Times,serif" font-size="14.00">3_filter/cfg/filter_config.yaml</text>
</g>
<!-- n23&#45;&gt;n18 -->
<g id="edge11" class="edge"><title>n23&#45;&gt;n18</title>
<path fill="none" stroke="black" d="M1183.77,-647.697C1183.88,-639.983 1184.01,-630.712 1184.13,-622.112"/>
<polygon fill="black" stroke="black" points="1187.63,-622.153 1184.28,-612.104 1180.63,-622.053 1187.63,-622.153"/>
</g>
<!-- n26 -->
<g id="node9" class="node"><title>n26</title>
<ellipse fill="none" stroke="red" cx="1027.52" cy="-522" rx="129.694" ry="18"/>
<text text-anchor="middle" x="1027.52" y="-517.8" font-family="Times,serif" font-size="14.00">3_filter/out/summary_flow.rds</text>
</g>
<!-- n24 -->
<g id="node14" class="node"><title>n24</title>
<ellipse fill="none" stroke="red" cx="1027.52" cy="-450" rx="107.125" ry="18"/>
<text text-anchor="middle" x="1027.52" y="-445.8" font-family="Times,serif" font-size="14.00">4_discharge/out/flow.rds</text>
</g>
<!-- n26&#45;&gt;n24 -->
<g id="edge14" class="edge"><title>n26&#45;&gt;n24</title>
<path fill="none" stroke="black" d="M1027.52,-503.697C1027.52,-495.983 1027.52,-486.712 1027.52,-478.112"/>
<polygon fill="black" stroke="black" points="1031.02,-478.104 1027.52,-468.104 1024.02,-478.104 1031.02,-478.104"/>
</g>
<!-- n18&#45;&gt;n26 -->
<g id="edge7" class="edge"><title>n18&#45;&gt;n26</title>
<path fill="none" stroke="black" d="M1147.71,-576.588C1125.47,-566.671 1096.93,-553.948 1073.25,-543.388"/>
<polygon fill="black" stroke="black" points="1074.66,-540.185 1064.1,-539.309 1071.81,-546.578 1074.66,-540.185"/>
</g>
<!-- n18&#45;&gt;n11 -->
<g id="edge17" class="edge"><title>n18&#45;&gt;n11</title>
<path fill="none" stroke="black" d="M1184.6,-575.849C1184.77,-538.832 1185.18,-451.181 1185.39,-406.386"/>
<polygon fill="black" stroke="black" points="1188.89,-406.249 1185.44,-396.232 1181.89,-406.216 1188.89,-406.249"/>
</g>
<!-- n27 -->
<g id="node11" class="node"><title>n27</title>
<ellipse fill="none" stroke="green" cx="907.519" cy="-594" rx="129.667" ry="18"/>
<text text-anchor="middle" x="907.519" y="-589.8" font-family="Times,serif" font-size="14.00">3_filter/src/summarize_flow.R</text>
</g>
<!-- n27&#45;&gt;n26 -->
<g id="edge8" class="edge"><title>n27&#45;&gt;n26</title>
<path fill="none" stroke="black" d="M935.958,-576.411C952.129,-566.978 972.577,-555.05 990.045,-544.86"/>
<polygon fill="black" stroke="black" points="991.995,-547.775 998.869,-539.713 988.468,-541.728 991.995,-547.775"/>
</g>
<!-- n20 -->
<g id="node12" class="node"><title>n20</title>
<ellipse fill="none" stroke="green" cx="1471.52" cy="-666" rx="143.488" ry="18"/>
<text text-anchor="middle" x="1471.52" y="-661.8" font-family="Times,serif" font-size="14.00">3_filter/src/summarize_samples.R</text>
</g>
<!-- n20&#45;&gt;n18 -->
<g id="edge12" class="edge"><title>n20&#45;&gt;n18</title>
<path fill="none" stroke="black" d="M1408.89,-649.725C1363.62,-638.683 1302.41,-623.753 1255.35,-612.276"/>
<polygon fill="black" stroke="black" points="1256.08,-608.852 1245.54,-609.882 1254.42,-615.652 1256.08,-608.852"/>
</g>
<!-- n19 -->
<g id="node13" class="node"><title>n19</title>
<ellipse fill="none" stroke="green" cx="1762.52" cy="-666" rx="129.101" ry="18"/>
<text text-anchor="middle" x="1762.52" y="-661.8" font-family="Times,serif" font-size="14.00">3_filter/src/summarize_sites.R</text>
</g>
<!-- n19&#45;&gt;n18 -->
<g id="edge13" class="edge"><title>n19&#45;&gt;n18</title>
<path fill="none" stroke="black" d="M1669.06,-653.55C1653.84,-651.691 1638.24,-649.789 1623.52,-648 1509.23,-634.112 1378.19,-618.307 1289.24,-607.597"/>
<polygon fill="black" stroke="black" points="1289.5,-604.102 1279.15,-606.382 1288.66,-611.052 1289.5,-604.102"/>
</g>
<!-- n24&#45;&gt;n11 -->
<g id="edge18" class="edge"><title>n24&#45;&gt;n11</title>
<path fill="none" stroke="black" d="M1063.77,-432.941C1086.37,-422.927 1115.65,-409.955 1139.83,-399.241"/>
<polygon fill="black" stroke="black" points="1141.44,-402.356 1149.17,-395.106 1138.61,-395.956 1141.44,-402.356"/>
</g>
<!-- n25 -->
<g id="node15" class="node"><title>n25</title>
<ellipse fill="none" stroke="green" cx="762.519" cy="-522" rx="117.495" ry="18"/>
<text text-anchor="middle" x="762.519" y="-517.8" font-family="Times,serif" font-size="14.00">4_discharge/src/get_flow.R</text>
</g>
<!-- n25&#45;&gt;n24 -->
<g id="edge15" class="edge"><title>n25&#45;&gt;n24</title>
<path fill="none" stroke="black" d="M818.719,-506.155C860.811,-495.036 918.487,-479.801 962.557,-468.16"/>
<polygon fill="black" stroke="black" points="963.535,-471.522 972.309,-465.584 961.747,-464.754 963.535,-471.522"/>
</g>
<!-- n28 -->
<g id="node16" class="node"><title>n28</title>
<ellipse fill="none" stroke="green" cx="1351.52" cy="-450" rx="137.746" ry="18"/>
<text text-anchor="middle" x="1351.52" y="-445.8" font-family="Times,serif" font-size="14.00">5_merge/cfg/merge_config.yaml</text>
</g>
<!-- n28&#45;&gt;n11 -->
<g id="edge19" class="edge"><title>n28&#45;&gt;n11</title>
<path fill="none" stroke="black" d="M1312.6,-432.588C1288.72,-422.519 1257.99,-409.559 1232.73,-398.906"/>
<polygon fill="black" stroke="black" points="1233.91,-395.608 1223.34,-394.947 1231.19,-402.058 1233.91,-395.608"/>
</g>
<!-- n29 -->
<g id="node18" class="node"><title>n29</title>
<ellipse fill="none" stroke="red" cx="1240.52" cy="-306" rx="81.6437" ry="18"/>
<text text-anchor="middle" x="1240.52" y="-301.8" font-family="Times,serif" font-size="14.00">5_merge/out/*.rds</text>
</g>
<!-- n11&#45;&gt;n29 -->
<g id="edge21" class="edge"><title>n11&#45;&gt;n29</title>
<path fill="none" stroke="black" d="M1198.83,-360.055C1205.52,-351.543 1213.75,-341.068 1221.13,-331.681"/>
<polygon fill="black" stroke="black" points="1223.9,-333.815 1227.33,-323.789 1218.4,-329.49 1223.9,-333.815"/>
</g>
<!-- n9 -->
<g id="node22" class="node"><title>n9</title>
<ellipse fill="none" stroke="red" cx="1240.52" cy="-234" rx="112.284" ry="18"/>
<text text-anchor="middle" x="1240.52" y="-229.8" font-family="Times,serif" font-size="14.00">6_model/doc/progress.csv</text>
</g>
<!-- n11&#45;&gt;n9 -->
<g id="edge26" class="edge"><title>n11&#45;&gt;n9</title>
<path fill="none" stroke="black" d="M1169.63,-359.96C1154.5,-341.559 1135.9,-311.699 1149.52,-288 1157.67,-273.824 1171.23,-263.084 1185.43,-255.109"/>
<polygon fill="black" stroke="black" points="1187.05,-258.212 1194.31,-250.496 1183.82,-252 1187.05,-258.212"/>
</g>
<!-- n29&#45;&gt;n9 -->
<g id="edge27" class="edge"><title>n29&#45;&gt;n9</title>
<path fill="none" stroke="black" d="M1240.52,-287.697C1240.52,-279.983 1240.52,-270.712 1240.52,-262.112"/>
<polygon fill="black" stroke="black" points="1244.02,-262.104 1240.52,-252.104 1237.02,-262.104 1244.02,-262.104"/>
</g>
<!-- n12 -->
<g id="node19" class="node"><title>n12</title>
<ellipse fill="none" stroke="green" cx="1656.52" cy="-450" rx="149.277" ry="18"/>
<text text-anchor="middle" x="1656.52" y="-445.8" font-family="Times,serif" font-size="14.00">5_merge/src/merge_sample_flow.R</text>
</g>
<!-- n12&#45;&gt;n11 -->
<g id="edge20" class="edge"><title>n12&#45;&gt;n11</title>
<path fill="none" stroke="black" d="M1566.54,-435.627C1482.77,-423.177 1358.59,-404.722 1274.98,-392.296"/>
<polygon fill="black" stroke="black" points="1275.4,-388.819 1264.99,-390.811 1274.37,-395.743 1275.4,-388.819"/>
</g>
<!-- n8 -->
<g id="node20" class="node"><title>n8</title>
<ellipse fill="none" stroke="red" cx="1257.52" cy="-18" rx="44.6665" ry="18"/>
<text text-anchor="middle" x="1257.52" y="-13.8" font-family="Times,serif" font-size="14.00">6_model</text>
</g>
<!-- n30 -->
<g id="node21" class="node"><title>n30</title>
<ellipse fill="none" stroke="red" cx="1337.52" cy="-90" rx="130.83" ry="18"/>
<text text-anchor="middle" x="1337.52" y="-85.8" font-family="Times,serif" font-size="14.00">6_model/doc/model_check.pdf</text>
</g>
<!-- n30&#45;&gt;n8 -->
<g id="edge22" class="edge"><title>n30&#45;&gt;n8</title>
<path fill="none" stroke="black" d="M1318.15,-72.055C1307.56,-62.784 1294.3,-51.1857 1282.89,-41.1997"/>
<polygon fill="black" stroke="black" points="1285.17,-38.5434 1275.34,-34.5923 1280.56,-43.8114 1285.17,-38.5434"/>
</g>
<!-- n9&#45;&gt;n8 -->
<g id="edge23" class="edge"><title>n9&#45;&gt;n8</title>
<path fill="none" stroke="black" d="M1221.48,-215.837C1212.34,-206.3 1202.35,-193.624 1197.52,-180 1181.48,-134.761 1177.79,-115.757 1197.52,-72 1203.35,-59.0766 1214.06,-48.0376 1224.83,-39.4331"/>
<polygon fill="black" stroke="black" points="1227.08,-42.1213 1233,-33.3368 1222.9,-36.5102 1227.08,-42.1213"/>
</g>
<!-- n32 -->
<g id="node23" class="node"><title>n32</title>
<ellipse fill="none" stroke="red" cx="1303.52" cy="-162" rx="96.7135" ry="18"/>
<text text-anchor="middle" x="1303.52" y="-157.8" font-family="Times,serif" font-size="14.00">6_model/out/*_lm.rds</text>
</g>
<!-- n9&#45;&gt;n32 -->
<g id="edge29" class="edge"><title>n9&#45;&gt;n32</title>
<path fill="none" stroke="black" d="M1255.77,-216.055C1263.51,-207.457 1273.05,-196.857 1281.56,-187.397"/>
<polygon fill="black" stroke="black" points="1284.32,-189.563 1288.41,-179.789 1279.12,-184.881 1284.32,-189.563"/>
</g>
<!-- n32&#45;&gt;n30 -->
<g id="edge24" class="edge"><title>n32&#45;&gt;n30</title>
<path fill="none" stroke="black" d="M1311.75,-144.055C1315.62,-136.091 1320.32,-126.411 1324.64,-117.51"/>
<polygon fill="black" stroke="black" points="1327.91,-118.8 1329.13,-108.275 1321.61,-115.741 1327.91,-118.8"/>
</g>
<!-- n31 -->
<g id="node24" class="node"><title>n31</title>
<ellipse fill="none" stroke="green" cx="1536.52" cy="-162" rx="118.119" ry="18"/>
<text text-anchor="middle" x="1536.52" y="-157.8" font-family="Times,serif" font-size="14.00">6_model/src/plot_models.R</text>
</g>
<!-- n31&#45;&gt;n30 -->
<g id="edge25" class="edge"><title>n31&#45;&gt;n30</title>
<path fill="none" stroke="black" d="M1491.86,-145.291C1462.37,-134.916 1423.52,-121.253 1392.18,-110.229"/>
<polygon fill="black" stroke="black" points="1393.31,-106.916 1382.72,-106.899 1390.99,-113.519 1393.31,-106.916"/>
</g>
<!-- n10 -->
<g id="node25" class="node"><title>n10</title>
<ellipse fill="none" stroke="green" cx="1455.52" cy="-306" rx="115.814" ry="18"/>
<text text-anchor="middle" x="1455.52" y="-301.8" font-family="Times,serif" font-size="14.00">6_model/src/run_models.R</text>
</g>
<!-- n10&#45;&gt;n9 -->
<g id="edge28" class="edge"><title>n10&#45;&gt;n9</title>
<path fill="none" stroke="black" d="M1408.07,-289.552C1375.54,-278.961 1332.22,-264.854 1297.77,-253.639"/>
<polygon fill="black" stroke="black" points="1298.44,-250.177 1287.85,-250.409 1296.27,-256.833 1298.44,-250.177"/>
</g>
</g>
</svg>

